<svg width="16" height="16" viewBox="0 0 16 16" fill="none" xmlns="http://www.w3.org/2000/svg">
  <path
    d="M4.89267 6.72335L8 3.61601L11.1088 6.7247L12.9168 4.91669L8 0L3.0848 4.91522L4.89274 6.72323L4.89267 6.72335ZM0 8.00003L1.80806 6.1917L3.616 7.99965L1.80794 9.80772L0 8.00003ZM4.89267 9.2769L8 12.384L11.1087 9.27543L12.9177 11.0825L12.9168 11.0834L8 16.0001L3.0848 11.0848L3.08224 11.0823L4.89286 9.27671L4.89267 9.2769ZM12.384 8.0008L14.1921 6.19273L16 8.00067L14.192 9.80874L12.384 8.0008Z"
    fill="#7927FF"/>
  <path
    d="M9.83338 7.9987H9.83415L7.99965 6.16406L6.64368 7.51965L6.4879 7.6755L6.16662 7.99684L6.16406 7.99934L6.16662 8.00196L7.99965 9.83525L9.83428 8.00062L9.83517 7.99959L9.83351 7.9987"
    fill="#7927FF"/>
</svg>
