<svg width="24" height="24" viewBox="0 0 24 24" fill="none" xmlns="http://www.w3.org/2000/svg">
<rect width="24" height="24" rx="12" fill="#F8F9FA"/>
<path d="M17.1127 6.00008H6.88732C6.77238 5.9985 6.65825 6.01943 6.55145 6.06169C6.44465 6.10395 6.34727 6.16671 6.26487 6.24639C6.18247 6.32606 6.11667 6.42109 6.07122 6.52604C6.02578 6.631 6.00157 6.74382 6 6.85807V17.1419C6.00157 17.2562 6.02578 17.369 6.07122 17.474C6.11667 17.5789 6.18247 17.6739 6.26487 17.7536C6.34727 17.8333 6.44465 17.896 6.55145 17.9383C6.65825 17.9806 6.77238 18.0015 6.88732 17.9999H17.1127C17.2276 18.0015 17.3418 17.9806 17.4486 17.9383C17.5554 17.896 17.6527 17.8333 17.7351 17.7536C17.8175 17.6739 17.8833 17.5789 17.9288 17.474C17.9742 17.369 17.9984 17.2562 18 17.1419V6.85807C17.9984 6.74382 17.9742 6.631 17.9288 6.52604C17.8833 6.42109 17.8175 6.32606 17.7351 6.24639C17.6527 6.16671 17.5554 6.10395 17.4486 6.06169C17.3418 6.01943 17.2276 5.9985 17.1127 6.00008ZM9.63984 16.0439H7.82897V10.644H9.63984V16.0439ZM8.73441 9.88803C8.48467 9.88803 8.24515 9.78942 8.06856 9.61388C7.89197 9.43835 7.79276 9.20028 7.79276 8.95204C7.79276 8.7038 7.89197 8.46573 8.06856 8.2902C8.24515 8.11467 8.48467 8.01606 8.73441 8.01606C8.86702 8.00111 9.00131 8.01417 9.1285 8.05438C9.25568 8.0946 9.37288 8.16107 9.47243 8.24943C9.57198 8.33779 9.65163 8.44606 9.70616 8.56714C9.76069 8.68822 9.78888 8.81938 9.78888 8.95204C9.78888 9.0847 9.76069 9.21587 9.70616 9.33695C9.65163 9.45803 9.57198 9.56629 9.47243 9.65466C9.37288 9.74302 9.25568 9.80948 9.1285 9.8497C9.00131 9.88992 8.86702 9.90298 8.73441 9.88803ZM16.171 16.0439H14.3602V13.146C14.3602 12.42 14.1006 11.946 13.4427 11.946C13.239 11.9475 13.0408 12.011 12.8745 12.1279C12.7083 12.2448 12.5822 12.4096 12.5131 12.6C12.4658 12.741 12.4454 12.8895 12.4527 13.038V16.0379H10.6419C10.6419 16.0379 10.6419 11.13 10.6419 10.638H12.4527V11.4C12.6172 11.1163 12.8565 10.8825 13.1447 10.7239C13.433 10.5654 13.7593 10.4879 14.0885 10.5C15.2958 10.5 16.171 11.274 16.171 12.936V16.0439Z" fill="#7927FF"/>
</svg>
