<svg width="15" height="15" viewBox="0 0 15 15" fill="none" xmlns="http://www.w3.org/2000/svg">
<path d="M14.2809 10.4131L12.8268 8.9199C12.514 8.62179 12.1194 8.42427 11.6938 8.35273C11.2682 8.28119 10.831 8.33889 10.4384 8.51843L9.80618 7.88452C10.5512 6.88642 10.8914 5.6424 10.7584 4.40288C10.6254 3.16337 10.029 2.02039 9.08926 1.20405C8.14955 0.38771 6.93629 -0.0413838 5.69373 0.00314951C4.45117 0.0476829 3.27156 0.562536 2.39237 1.44407C1.51319 2.3256 0.999704 3.50835 0.95529 4.75422C0.910875 6.0001 1.33883 7.21659 2.153 8.15881C2.96717 9.10103 4.1071 9.69902 5.34332 9.83239C6.57954 9.96576 7.82026 9.62462 8.81571 8.87764L9.4409 9.50449C9.24076 9.89866 9.16903 10.3459 9.23582 10.7831C9.30262 11.2203 9.50456 11.6255 9.8132 11.9415L11.3024 13.4347C11.6976 13.8304 12.2332 14.0526 12.7916 14.0526C13.3501 14.0526 13.8857 13.8304 14.2809 13.4347C14.4816 13.2379 14.6411 13.0029 14.7499 12.7434C14.8588 12.484 14.9149 12.2054 14.9149 11.9239C14.9149 11.6424 14.8588 11.3638 14.7499 11.1043C14.6411 10.8449 14.4816 10.6099 14.2809 10.4131ZM8.32398 7.42671C7.83242 7.91833 7.20658 8.25285 6.5255 8.38802C5.84442 8.52318 5.13867 8.45292 4.49739 8.18611C3.85612 7.9193 3.3081 7.46792 2.92255 6.88897C2.53701 6.31003 2.33124 5.6295 2.33124 4.93336C2.33124 4.23722 2.53701 3.55669 2.92255 2.97775C3.3081 2.39881 3.85612 1.94742 4.49739 1.68061C5.13867 1.4138 5.84442 1.34354 6.5255 1.47871C7.20658 1.61387 7.83242 1.94839 8.32398 2.44002C8.65107 2.76715 8.91058 3.15577 9.08765 3.58362C9.26471 4.01147 9.35585 4.47014 9.35585 4.93336C9.35585 5.39658 9.26471 5.85526 9.08765 6.2831C8.91058 6.71095 8.65107 7.09957 8.32398 7.42671ZM13.2904 12.4064C13.2251 12.4724 13.1474 12.5248 13.0618 12.5605C12.9762 12.5963 12.8844 12.6147 12.7916 12.6147C12.6989 12.6147 12.6071 12.5963 12.5215 12.5605C12.4359 12.5248 12.3582 12.4724 12.2929 12.4064L10.8037 10.9132C10.7378 10.8477 10.6856 10.7698 10.6499 10.684C10.6142 10.5981 10.5959 10.5061 10.5959 10.4131C10.5959 10.3201 10.6142 10.228 10.6499 10.1422C10.6856 10.0564 10.7378 9.97849 10.8037 9.91301C10.869 9.84699 10.9467 9.79459 11.0323 9.75883C11.1179 9.72308 11.2097 9.70467 11.3024 9.70467C11.3952 9.70467 11.487 9.72308 11.5726 9.75883C11.6582 9.79459 11.7359 9.84699 11.8012 9.91301L13.2904 11.4062C13.3562 11.4717 13.4085 11.5496 13.4441 11.6354C13.4798 11.7212 13.4982 11.8133 13.4982 11.9063C13.4982 11.9993 13.4798 12.0913 13.4441 12.1771C13.4085 12.263 13.3562 12.3409 13.2904 12.4064Z" fill="#7927FF"/>
</svg>
