<svg width="24" height="24" viewBox="0 0 24 24" fill="none" xmlns="http://www.w3.org/2000/svg">
<rect width="24" height="24" rx="12" fill="#F8F9FA"/>
<path d="M19 8.19807C18.5114 8.39836 17.9947 8.53076 17.466 8.59116C18.0238 8.27627 18.4418 7.78089 18.6425 7.19691C18.1183 7.49177 17.5445 7.69952 16.946 7.81112C16.546 7.40118 16.0132 7.12831 15.4314 7.03529C14.8495 6.94227 14.2515 7.03437 13.731 7.29715C13.2105 7.55992 12.797 7.97851 12.5554 8.48726C12.3138 8.99601 12.2577 9.56614 12.396 10.1082C11.3361 10.0576 10.2994 9.79681 9.35313 9.34286C8.40686 8.88891 7.57225 8.25193 6.9035 7.47331C6.66894 7.86036 6.54569 8.29869 6.546 8.74471C6.54517 9.15892 6.65274 9.56689 6.85914 9.93231C7.06554 10.2977 7.36436 10.6093 7.729 10.8391C7.30519 10.8282 6.89043 10.7208 6.52 10.5259V10.5566C6.52318 11.137 6.7384 11.6985 7.12925 12.1462C7.52011 12.5938 8.06262 12.9002 8.665 13.0134C8.43312 13.0801 8.19237 13.1153 7.95 13.1178C7.78223 13.116 7.61487 13.1016 7.4495 13.0749C7.62104 13.5741 7.953 14.0104 8.3992 14.323C8.84539 14.6357 9.38362 14.8091 9.939 14.8192C9.00118 15.5165 7.84332 15.897 6.65 15.9002C6.43273 15.9009 6.21563 15.8886 6 15.8633C7.21838 16.6067 8.63823 17.0013 10.0885 16.9996C11.0893 17.0094 12.0821 16.8307 13.009 16.4739C13.9359 16.1171 14.7783 15.5893 15.4869 14.9215C16.1955 14.2536 16.7562 13.459 17.1362 12.584C17.5161 11.7091 17.7078 10.7714 17.7 9.82571C17.7 9.72129 17.7 9.61074 17.7 9.50018C18.2101 9.14075 18.65 8.70013 19 8.19807Z" fill="#7927FF"/>
</svg>
