<svg width="35" height="31" viewBox="0 0 35 31" fill="none" xmlns="http://www.w3.org/2000/svg">
  <path
    d="M26.2133 19.0218C27.069 17.5512 28.4499 17.5512 29.3057 19.0218L34.6348 28.3296C35.4905 29.8002 34.7904 31 33.0788 31H22.3429C20.6508 31 19.9506 29.8002 20.7869 28.3296L26.2133 19.0218ZM15.9052 1.103C16.7609 -0.367665 18.1224 -0.367665 18.9781 1.103L20.1645 3.23159L22.9652 8.12734C23.646 9.5206 23.646 11.1654 22.9652 12.5587L13.5713 28.7553C12.7155 30.0712 11.2957 30.9032 9.72031 31H1.92117C0.209641 31 -0.490531 29.8196 0.365235 28.3296L15.9052 1.103Z"
    fill="#7927FF"/>
</svg>
