<svg width="2669" height="425" viewBox="0 0 2669 425" fill="none" xmlns="http://www.w3.org/2000/svg">
<path fill-rule="evenodd" clip-rule="evenodd" d="M2182.36 101.435H2224.07L2087.6 213.741L2227.85 331.717H2186.68L2064.39 227.919H2058.72V331.717H2030.24V0H2058.72V199.976H2064.39L2182.36 101.435ZM824.183 6.26215H765.578V332.013H824.183V6.26215ZM570.92 131.387C578.363 115.555 596.973 97.418 638.386 97.418C692.323 97.418 728.183 137 728.124 194.245V331.954H669.519V198.853C669.519 163.939 651.855 146.747 620.19 146.747C584.33 146.747 563.417 171.855 563.417 214.686V331.954H504.812V101.14H562.531V131.387H570.92ZM124.239 289.182H115.85L62.3262 101.14H0L73.5509 331.954H166.597L240.089 101.14H177.763L124.239 289.182ZM437.169 133.928C427.185 123.589 415.488 115.614 402.196 109.942C388.844 104.271 374.725 101.435 359.719 101.435C344.064 101.435 329.295 104.507 315.47 110.71C301.646 116.854 289.477 125.302 278.961 135.936C268.445 146.629 260.115 159.035 253.971 173.155C247.827 187.333 244.696 202.575 244.696 218.88C244.696 235.186 247.768 250.487 253.971 264.606C260.115 278.784 268.445 291.191 278.961 301.824C289.477 312.517 301.646 320.906 315.47 327.05C329.295 333.194 344.064 336.325 359.719 336.325C372.716 336.325 384.768 334.14 395.992 329.827C407.158 325.514 417.142 319.902 426.004 313.108C434.806 306.255 442.309 298.516 448.512 289.891C454.656 281.207 459.264 272.581 462.277 263.897H402.314C399.655 267.205 396.288 270.218 392.33 272.877C388.667 275.24 384.236 277.189 379.096 278.903C373.898 280.557 367.517 281.384 359.837 281.384C344.832 281.384 333.016 277.544 324.332 269.864C315.648 262.184 309.976 252.731 307.318 241.389H467.298C467.536 239.847 467.746 238.199 467.966 236.481L467.966 236.478L467.967 236.473L467.968 236.463C468.076 235.62 468.186 234.759 468.303 233.886C468.527 232.428 468.728 230.922 468.935 229.37L468.935 229.368L468.935 229.367C469.055 228.467 469.177 227.551 469.307 226.619C469.661 224.138 469.78 221.539 469.78 218.88C469.78 201.571 466.885 185.62 461.036 171.146C455.069 156.672 447.153 144.266 437.169 133.928ZM304.659 201.394C307.318 188.751 313.403 178.058 322.914 169.374C332.426 160.689 344.655 156.377 359.66 156.377C374.666 156.377 386.895 160.689 396.406 169.374C405.917 178.058 412.002 188.692 414.661 201.394H304.659ZM974.771 286.346C1010.63 286.346 1031.54 261.239 1031.54 218.408V101.14H1090.15V372.894C1090.15 404.5 1069.71 425 1038.99 425H893.776V373.839H1019.43C1027.82 373.839 1032.49 369.231 1032.49 359.897V301.706H1024.1C1016.66 317.539 998.047 335.676 956.634 335.676C902.697 335.676 866.837 296.153 866.837 238.907V101.14H925.441V234.24C925.441 269.155 943.105 286.346 974.771 286.346ZM1466.82 96.65C1425.59 96.65 1404.26 116.086 1393.86 140.249H1388.19C1377.79 116.559 1354.99 96.65 1318.07 96.65C1279.19 96.65 1260.23 114.668 1250.78 131.742H1245.11V101.435H1217.64V331.717H1246.05V191.941C1246.05 146.452 1274 122.289 1310.5 122.289C1346.54 122.289 1367.4 144.089 1367.4 176.758V331.717H1395.81V191.941C1395.81 146.452 1423.76 122.289 1460.27 122.289C1496.3 122.289 1517.16 144.089 1517.16 176.758V331.717H1545.57V173.923C1545.51 127.961 1513.73 96.65 1466.82 96.65ZM1794.29 181.012V292.845C1794.29 302.356 1799.01 307.082 1807.52 307.023H1829.79V331.658H1799.49C1780.11 331.658 1767.76 319.37 1767.76 298.989V295.68H1763.03C1750.69 317.007 1729.83 338.334 1682.45 338.334C1633.66 338.334 1596.2 312.754 1596.2 266.792C1596.2 220.83 1633.66 198.085 1681.51 198.085H1765.81V179.594C1765.81 142.612 1744.01 120.34 1702.78 120.34C1662.01 120.34 1638.8 142.08 1630.76 175.281L1603.29 167.247C1614.22 126.956 1645.47 94.7595 1702.84 94.7595C1760.61 94.7595 1794.29 127.016 1794.29 181.012ZM1684.34 312.754C1733.2 312.754 1765.87 281.915 1765.87 228.392V222.72H1681.98C1649.25 222.72 1624.62 236.958 1624.62 266.319C1624.62 296.153 1649.25 312.754 1684.34 312.754ZM1902.81 130.324H1897.14V101.435H1869.67V331.717H1898.09V187.688C1898.09 145.979 1920.36 127.016 1955.45 127.016H1985.76V100.49H1958.76C1927.92 100.49 1911.32 109.47 1902.81 130.324ZM2356.76 94.7595C2290.41 94.7595 2242.56 143.085 2242.56 213.682V219.353C2242.56 289.95 2289 338.275 2360.07 338.275C2421.21 338.275 2448.21 304.601 2462.92 273.349L2437.34 261.947C2424.52 290.363 2403.19 312.636 2360.07 312.636C2309.38 312.636 2272.87 279.966 2270.98 222.602H2467.17V207.419C2467.17 137.413 2421.21 94.7595 2356.76 94.7595ZM2271.45 198.085C2278.07 148.342 2310.8 120.34 2356.76 120.34C2403.19 120.34 2435.92 148.283 2438.28 198.085H2271.45ZM2668.57 101.435V127.016H2588.05V291.959C2588.05 301.47 2591.89 306.196 2602.28 306.196H2656.28V331.776H2596.55C2571.92 331.776 2559.57 318.484 2559.57 295.74V127.016H2485.67V101.435H2559.57V15.1828H2587.99V101.435H2668.57Z" fill="#4C28DA"/>
</svg>
